# xmcd
#
# Track frame offsets: 
#        150
#        17985
#        39616
#        51780
#        65575
#        83418
#        99823
#        125618
#        141694
#        160131
#        182460
#        195797
#        212904
#        227422
#        271064
#
# Disc length: 4026 seconds
#
# Revision: 0
# Processed by: cddbd v1.5.2PL0 Copyright (c) Steve Scherf et al.
# Submitted via: ExactAudioCopy v1.3
#
DISCID=c30fb80f
DTITLE=P.P. Arnold - The New Adventures Of P.P. Arnold
DYEAR=2019
DGENRE=Soul
TTITLE0=Baby Blue
TTITLE1=Though It Hurts Me Badly
TTITLE2=The Magic Hour
TTITLE3=Different Drum
TTITLE4=I Believe
TTITLE5=Hold On To Your Dreams
TTITLE6=I'm A Dreamer
TTITLE7=When I Was Part Of Your Picture
TTITLE8=Shoot The Dove
TTITLE9=I Finally Found My Way Back Home
TTITLE10=You Got Me
TTITLE11=Daltry Street
TTITLE12=Still Trying
TTITLE13=The Last Thoughts On Woody Guthrie
TTITLE14=I'll Always Remember You... (Debbie's Song)
EXTD=
EXTT0=
EXTT1=
EXTT2=
EXTT3=
EXTT4=
EXTT5=
EXTT6=
EXTT7=
EXTT8=
EXTT9=
EXTT10=
EXTT11=
EXTT12=
EXTT13=
EXTT14=
PLAYORDER=
